<svg xmlns="http://www.w3.org/2000/svg" xmlns:xlink="http://www.w3.org/1999/xlink" width="784.993" height="784.438" viewBox="0 0 784.993 784.438">
  <defs>
    <linearGradient id="linear-gradient" y1="0.5" x2="1" y2="0.5" gradientUnits="objectBoundingBox">
      <stop offset="0" stop-color="#3e8acb"/>
      <stop offset="1" stop-color="#db6aa4"/>
    </linearGradient>
  </defs>
  <g id="レイヤー_2" data-name="レイヤー 2" opacity="0.071">
    <g id="design" transform="translate(0 0)">
      <path id="パス_5" data-name="パス 5" d="M404.378,39.827a121.4,121.4,0,0,1,205.9,45.756,124.907,124.907,0,0,1,1.661,60.147,137.452,137.452,0,0,0-98.338-41.7H404.378Zm-247.967,591.5a140.772,140.772,0,0,1-23.431-77.859V494.8a26.2,26.2,0,0,1,11.808-49.261,25.83,25.83,0,0,1,25.83,26.2A26.383,26.383,0,0,1,156.78,494.8v58.671A115.865,115.865,0,0,0,258.624,668.784a79.7,79.7,0,0,1-18.45-55.35v-63.1a25.922,25.922,0,1,1,23.8,0v63.837c0,36.9,21.771,55.35,66.6,55.35h51.66v-171.4H333.346a63.1,63.1,0,0,1-47.97-22.14l-55.35-64.021a39.668,39.668,0,0,0-30.073-13.837H136.3a26.2,26.2,0,1,1,0-23.985h64.021a63.1,63.1,0,0,1,47.97,22.14l55.35,64.021a40.036,40.036,0,0,0,30.073,13.837h47.416V377.829H351.8A115.681,115.681,0,0,1,281.5,353.844L174.677,270.635a24.17,24.17,0,0,1-10.885,2.583,26.2,26.2,0,1,1,25.83-26.2,18.45,18.45,0,0,1,0,4.613l105.9,83.025a90.4,90.4,0,0,0,55.35,18.45H379.84V287.056h-5.166a107.748,107.748,0,0,1-106.825-108.3V120.084a25.83,25.83,0,1,1,23.616,0v58.671a83.947,83.947,0,0,0,83.209,84.316h5.166V39.827A121.585,121.585,0,0,0,174.677,85.583a127.121,127.121,0,0,0,0,69,8.671,8.671,0,0,1-5.535,10.7,8.856,8.856,0,0,1-11.623-5.9,144.463,144.463,0,0,1-4.612-48.708A123.061,123.061,0,0,0,32.612,234.289a132.1,132.1,0,0,0,.922,14.76,5.166,5.166,0,0,1,0,1.66,130.626,130.626,0,0,0,2.952,14.76,7.933,7.933,0,0,1,0,.922,97.783,97.783,0,0,0,4.243,12.361,4.383,4.383,0,0,0,1.291,3.69c1.291,1.292,2.952,6.457,4.612,9.594a133.385,133.385,0,0,0,9.409,15.5,8.858,8.858,0,1,1-14.391,10.332c-2.583-3.505-4.981-7.38-7.2-11.07a123.983,123.983,0,0,0,0,171.584c2.214-3.69,4.612-7.564,7.2-11.07a8.858,8.858,0,0,1,14.391,10.332c-3.505,4.982-6.457,10.147-9.409,15.313a69.428,69.428,0,0,0-4.612,9.778c-1.476,3.321,0,2.4-1.291,3.505a114.4,114.4,0,0,0-4.243,12.731h0a130.626,130.626,0,0,0-2.952,14.76,5.166,5.166,0,0,1,0,1.66,129.155,129.155,0,0,0-.923,14.76A123.061,123.061,0,0,0,152.906,673.766a147.6,147.6,0,0,1,3.505-42.435Zm595.01-96.308a130.648,130.648,0,0,0-2.952-14.76h0a110.724,110.724,0,0,0-4.244-12.546c0-1.107-.922-2.214-1.291-3.505s-2.952-6.458-4.613-9.778a151.873,151.873,0,0,0-9.409-15.313A8.858,8.858,0,1,1,743.3,468.788c2.583,3.505,4.982,7.38,7.2,11.07a123.983,123.983,0,0,0,0-171.584c-2.214,3.69-4.612,7.564-7.2,11.07a8.858,8.858,0,0,1-14.391-10.332,133.375,133.375,0,0,0,9.41-15.5c1.66-3.137,3.136-6.273,4.612-9.594s0-2.4,1.291-3.69a97.784,97.784,0,0,0,4.244-12.361,7.938,7.938,0,0,1,0-.922,130.644,130.644,0,0,0,2.952-14.76,5.166,5.166,0,0,1,0-1.661,132.089,132.089,0,0,0,.922-14.76,123.061,123.061,0,0,0-120.109-125.09,144.463,144.463,0,0,1-4.613,48.708,7.013,7.013,0,0,1-1.66,2.768,140.772,140.772,0,0,1,26.568,82.1v58.671a26.383,26.383,0,0,1,14.022,23.247,25.83,25.83,0,1,1-51.66,0,26.568,26.568,0,0,1,12.731-23.247V244.252A115.866,115.866,0,0,0,527.439,129.124a79.7,79.7,0,0,1,18.45,55.35v63.837a26.09,26.09,0,1,1-23.8,0V184.474c0-36.9-21.771-55.35-66.789-55.35H404.378V300.893h47.416a62.914,62.914,0,0,1,47.97,21.955l55.35,64.021a39.851,39.851,0,0,0,30.073,14.022h64.021a26.014,26.014,0,1,1,0,23.985h-64.39a63.468,63.468,0,0,1-47.97-22.14L481.5,338.716a39.3,39.3,0,0,0-30.073-13.837H404.378V421h28.966a114.574,114.574,0,0,1,70.294,24.169L610.464,528.2a24.169,24.169,0,0,1,10.885-2.583,26.2,26.2,0,1,1-25.83,26.2,18.452,18.452,0,0,1,0-4.613L489.248,463.068a92.249,92.249,0,0,0-55.35-18.45h-29.52v66.973h5.166A107.563,107.563,0,0,1,516.923,618.97V677.64a26.684,26.684,0,1,1-23.431.369V618.97a83.763,83.763,0,0,0-83.947-83.947h-5.166V744.614a121.4,121.4,0,0,0,205.9-45.756,125.274,125.274,0,0,0,0-69,8.672,8.672,0,0,1,5.535-10.7,8.856,8.856,0,0,1,11.624,5.9,144.464,144.464,0,0,1,4.981,49.077A123.061,123.061,0,0,0,752.712,550.52a132.121,132.121,0,0,0-.922-14.76,5.152,5.152,0,0,1-.369-.738ZM380.762,693.692H271.539a137.452,137.452,0,0,1-100.367-43.911,129.149,129.149,0,0,0,3.505,49.077,121.585,121.585,0,0,0,206.085,45.756Z" transform="translate(0.019 -0.001)" fill="url(#linear-gradient)"/>
    </g>
  </g>
</svg>
