<svg width="228" height="223" viewBox="0 0 228 223" fill="none" xmlns="http://www.w3.org/2000/svg">
<g filter="url(#filter0_d_163_843)">
<path d="M205.602 122.18C193.86 72.6872 135.39 20.3433 86.0919 32.0393C36.7935 43.7353 15.3373 115.041 27.0794 164.534C37.6502 209.089 53.1889 157.806 103.641 162.339C115.04 163.364 126.704 160.89 136.536 155.033C181.507 128.245 216.205 166.873 205.602 122.18Z" fill="url(#paint0_linear_163_843)"/>
<path d="M67.9362 93.9959C67.9879 93.2913 67.3773 92.7182 66.6774 92.8143L59.2976 93.8271C58.6208 93.9199 58.2004 94.6113 58.4293 95.2549L60.4129 100.833C61.0038 102.494 62.6964 103.498 64.4377 103.218V103.218C66.1117 102.95 67.3816 101.566 67.5055 99.8747L67.9362 93.9959Z" fill="#222222"/>
<path d="M44.3278 96.6828C47.1442 96.6866 49.4305 94.4066 49.4344 91.5902C49.4383 88.7737 47.1582 86.4874 44.3418 86.4836C41.5254 86.4797 39.2391 88.7597 39.2352 91.5762C39.2313 94.3926 41.5113 96.6789 44.3278 96.6828Z" fill="white"/>
<path d="M43.7133 96.3536C46.0965 96.3568 48.0311 94.4276 48.0343 92.0444C48.0376 89.6613 46.1083 87.7267 43.7252 87.7235C41.3421 87.7202 39.4075 89.6494 39.4042 92.0326C39.401 94.4157 41.3302 96.3503 43.7133 96.3536Z" fill="#222222"/>
<path d="M41.1482 93.1915C41.7982 93.1924 42.3258 92.6662 42.3267 92.0162C42.3275 91.3663 41.8014 90.8387 41.1514 90.8378C40.5015 90.8369 39.9739 91.3631 39.973 92.013C39.9721 92.663 40.4983 93.1906 41.1482 93.1915Z" fill="#C0C0C0"/>
<path d="M81.7834 90.9073C84.8165 90.9115 87.2787 88.4561 87.2829 85.423C87.287 82.3899 84.8316 79.9277 81.7985 79.9236C78.7654 79.9194 76.3033 82.3748 76.2991 85.4079C76.2949 88.441 78.7503 90.9032 81.7834 90.9073Z" fill="white"/>
<path d="M80.6059 90.1197C82.9891 90.1229 84.9236 88.1937 84.9269 85.8105C84.9302 83.4274 83.0009 81.4928 80.6178 81.4896C78.2346 81.4863 76.3001 83.4156 76.2968 85.7987C76.2935 88.1818 78.2228 90.1164 80.6059 90.1197Z" fill="#222222"/>
<path d="M78.2634 86.9744C78.9134 86.9753 79.441 86.4491 79.4419 85.7992C79.4428 85.1493 78.9166 84.6216 78.2667 84.6208C77.6167 84.6199 77.0891 85.146 77.0882 85.796C77.0873 86.4459 77.6135 86.9735 78.2634 86.9744Z" fill="#C0C0C0"/>
</g>
<defs>
<filter id="filter0_d_163_843" x="3.93359" y="30.3823" width="223.59" height="192.477" filterUnits="userSpaceOnUse" color-interpolation-filters="sRGB">
<feFlood flood-opacity="0" result="BackgroundImageFix"/>
<feColorMatrix in="SourceAlpha" type="matrix" values="0 0 0 0 0 0 0 0 0 0 0 0 0 0 0 0 0 0 127 0" result="hardAlpha"/>
<feOffset dy="20"/>
<feGaussianBlur stdDeviation="10"/>
<feComposite in2="hardAlpha" operator="out"/>
<feColorMatrix type="matrix" values="0 0 0 0 0.419375 0 0 0 0 0.7625 0 0 0 0 0.700737 0 0 0 0.25 0"/>
<feBlend mode="normal" in2="BackgroundImageFix" result="effect1_dropShadow_163_843"/>
<feBlend mode="normal" in="SourceGraphic" in2="effect1_dropShadow_163_843" result="shape"/>
</filter>
<linearGradient id="paint0_linear_163_843" x1="0.464844" y1="52.3542" x2="197.427" y2="29.2467" gradientUnits="userSpaceOnUse">
<stop stop-color="#98EDBF"/>
<stop offset="1" stop-color="#2C7CDA"/>
</linearGradient>
</defs>
</svg>
