<svg width="152" height="121" viewBox="0 0 152 121" fill="none" xmlns="http://www.w3.org/2000/svg">
<path d="M148.4 74.8262C140.568 41.8141 101.572 6.90007 68.6922 14.7015C47.6718 19.6889 34.2411 40.9272 29.3334 64.2252C28.5955 67.7284 13.9542 82.8309 13.6049 86.379C12.6434 96.1438 27.2615 94.3433 29.3334 103.077C35.9352 130.906 45.4422 102.683 74.2523 101.462C85.6876 100.978 97.3388 98.5392 107.805 93.907C135.071 81.8399 155.036 102.798 148.4 74.8262Z" fill="url(#paint0_linear_173_866)"/>
<path d="M65.9141 48.0234L62.9471 50.6545C62.3305 51.2012 62.6027 52.2172 63.4101 52.3824L67.2949 53.1773" stroke="#222222" stroke-linecap="round"/>
<path d="M62.7401 51.6374L66.6055 50.6016" stroke="#222222" stroke-linecap="round"/>
<path d="M39.9531 51.9609L43.4999 53.7343C44.237 54.1029 44.237 55.1547 43.4999 55.5232L39.9531 57.2966" stroke="#222222" stroke-linecap="round"/>
<path d="M43.9549 54.6289L39.9531 54.6289" stroke="#222222" stroke-linecap="round"/>
<path d="M56.5825 56.0251C56.6169 55.5552 56.2097 55.1729 55.7429 55.237L50.8209 55.9125C50.3695 55.9745 50.0891 56.4356 50.2417 56.8649L51.5647 60.585C51.9588 61.6932 53.0877 62.3623 54.249 62.176V62.176C55.3655 61.9968 56.2125 61.0737 56.2951 59.946L56.5825 56.0251Z" fill="#222222"/>
<defs>
<linearGradient id="paint0_linear_173_866" x1="0" y1="31" x2="144.127" y2="15.7243" gradientUnits="userSpaceOnUse">
<stop stop-color="#FF6F6F"/>
<stop offset="1" stop-color="#F33FB6"/>
</linearGradient>
</defs>
</svg>
