<svg width="216" height="216" viewBox="0 0 216 216" fill="none" xmlns="http://www.w3.org/2000/svg">
<path d="M192.314 165.531C204.636 116.18 176.772 42.8169 127.615 30.5423C78.4573 18.2677 26.6242 71.7305 14.3013 121.082C3.20765 165.51 40.5813 127.109 83.3029 154.327C92.9553 160.476 104.451 163.641 115.876 162.959C168.128 159.842 181.185 210.097 192.314 165.531Z" fill="url(#paint0_linear_163_809)"/>
<ellipse cx="129.05" cy="99.2749" rx="1.92703" ry="2.64599" fill="#222222"/>
<path d="M142.551 89.8613C142.551 89.8613 144.058 88.1782 145.917 88.1782C147.776 88.1782 149.283 89.8613 149.283 89.8613" stroke="#222222" stroke-width="2" stroke-linecap="round"/>
<path d="M108.299 92.0767C108.299 92.0767 109.806 90.3936 111.665 90.3936C113.524 90.3936 115.031 92.0767 115.031 92.0767" stroke="#222222" stroke-width="2" stroke-linecap="round"/>
<defs>
<linearGradient id="paint0_linear_163_809" x1="101.011" y1="36.161" x2="231.029" y2="115.361" gradientUnits="userSpaceOnUse">
<stop stop-color="#EEFF89"/>
<stop offset="1" stop-color="#80B677"/>
</linearGradient>
</defs>
</svg>
