<svg width="176" height="179" viewBox="0 0 176 179" fill="none" xmlns="http://www.w3.org/2000/svg">
<g filter="url(#filter0_d_161_748)">
<path d="M154.866 99.8342C148.049 62.8474 106.833 22.0053 69.9909 28.7961C33.1492 35.5869 14.635 87.4385 21.4525 124.425C27.7034 158.338 41.4821 119.033 80.1501 126.006C87.1895 127.276 94.5953 126.082 100.799 122.521C135.977 102.329 161.132 133.829 154.866 99.8342Z" fill="url(#paint0_linear_161_748)"/>
</g>
<path d="M69.7656 64.4547C69.7656 64.4547 68.703 66.2109 67.043 66.5234C65.3831 66.836 63.7545 65.5866 63.7545 65.5866" stroke="#222222" stroke-width="2" stroke-linecap="round"/>
<path d="M99.9871 56.7264C99.9871 56.7264 98.9244 58.4826 97.2645 58.7952C95.6045 59.1077 93.9759 57.8583 93.9759 57.8583" stroke="#222222" stroke-width="2" stroke-linecap="round"/>
<path d="M80.8567 63.8478C80.8567 63.8478 83.7245 63.1236 84.0005 64.1537C84.2765 65.1838 81.4308 65.9904 81.4308 65.9904C81.4308 65.9904 84.2986 65.2661 84.5746 66.2962C84.8506 67.3263 82.0049 68.133 82.0049 68.133" stroke="#222222" stroke-width="2" stroke-linecap="round"/>
<defs>
<filter id="filter0_d_161_748" x="0.0588379" y="28.0502" width="175.767" height="150.365" filterUnits="userSpaceOnUse" color-interpolation-filters="sRGB">
<feFlood flood-opacity="0" result="BackgroundImageFix"/>
<feColorMatrix in="SourceAlpha" type="matrix" values="0 0 0 0 0 0 0 0 0 0 0 0 0 0 0 0 0 0 127 0" result="hardAlpha"/>
<feOffset dy="20"/>
<feGaussianBlur stdDeviation="10"/>
<feComposite in2="hardAlpha" operator="out"/>
<feColorMatrix type="matrix" values="0 0 0 0 0.419375 0 0 0 0 0.7625 0 0 0 0 0.700737 0 0 0 0.25 0"/>
<feBlend mode="normal" in2="BackgroundImageFix" result="effect1_dropShadow_161_748"/>
<feBlend mode="normal" in="SourceGraphic" in2="effect1_dropShadow_161_748" result="shape"/>
</filter>
<linearGradient id="paint0_linear_161_748" x1="6" y1="40.5911" x2="152.346" y2="30.0923" gradientUnits="userSpaceOnUse">
<stop stop-color="#FF96E2"/>
<stop offset="0.0001" stop-color="#FF61D3"/>
<stop offset="1" stop-color="#EA97FF"/>
</linearGradient>
</defs>
</svg>
