<svg width="211" height="178" viewBox="0 0 211 178" fill="none" xmlns="http://www.w3.org/2000/svg">
<path d="M205.137 112.263C193.395 62.7707 134.925 10.4268 85.6271 22.1228C36.3287 33.8188 14.8725 105.125 26.6145 154.617C37.1853 199.173 52.7241 147.89 103.176 152.423C114.575 153.447 126.239 150.973 136.072 145.116C181.043 118.328 215.74 156.957 205.137 112.263Z" fill="url(#paint0_linear_163_789)"/>
<path d="M79.0991 85.2106C76.0539 86.9688 72.16 85.9254 70.4018 82.8802C68.6437 79.835 69.687 75.9411 72.7323 74.1829C75.7775 72.4248 79.6714 73.4681 81.4295 76.5134C83.1877 79.5586 82.1443 83.4525 79.0991 85.2106Z" fill="white"/>
<path d="M78.6515 82.6359C76.3676 83.9545 73.4471 83.172 72.1285 80.8881C70.8099 78.6041 71.5924 75.6837 73.8763 74.3651C76.1602 73.0465 79.0807 73.829 80.3993 76.1129C81.7179 78.3968 80.9354 81.3173 78.6515 82.6359Z" fill="#222222"/>
<path d="M77.6371 77.7032C76.8758 78.1427 75.9023 77.8819 75.4628 77.1206C75.0232 76.3593 75.2841 75.3858 76.0454 74.9462C76.8067 74.5067 77.7801 74.7675 78.2197 75.5289C78.6592 76.2902 78.3984 77.2636 77.6371 77.7032Z" fill="#C0C0C0"/>
<path d="M36.5053 100.892C33.4601 102.65 29.5662 101.607 27.8081 98.5618C26.0499 95.5166 27.0933 91.6227 30.1385 89.8646C33.1837 88.1064 37.0776 89.1498 38.8358 92.195C40.5939 95.2402 39.5506 99.1341 36.5053 100.892Z" fill="white"/>
<path d="M36.0773 98.0233C33.7933 99.3419 30.8729 98.5594 29.5543 96.2755C28.2357 93.9916 29.0182 91.0712 31.3021 89.7526C33.586 88.4339 36.5065 89.2165 37.8251 91.5004C39.1437 93.7843 38.3612 96.7047 36.0773 98.0233Z" fill="#222222"/>
<path d="M35.0629 93.0977C34.3016 93.5372 33.3281 93.2764 32.8885 92.5151C32.449 91.7538 32.7098 90.7803 33.4711 90.3408C34.2325 89.9012 35.2059 90.1621 35.6455 90.9234C36.085 91.6847 35.8242 92.6582 35.0629 93.0977Z" fill="#C0C0C0"/>
<ellipse cx="2.02681" cy="2.783" rx="2.02681" ry="2.783" transform="matrix(-0.925725 0.378198 0.378198 0.925725 60.1055 99.312)" fill="#222222"/>
<defs>
<linearGradient id="paint0_linear_163_789" x1="0" y1="42.4377" x2="196.956" y2="18.2327" gradientUnits="userSpaceOnUse">
<stop stop-color="#FF96E2"/>
<stop offset="0.0001" stop-color="#FF61D3"/>
<stop offset="1" stop-color="#EA97FF"/>
</linearGradient>
</defs>
</svg>
