<svg width="227" height="220" viewBox="0 0 227 220" fill="none" xmlns="http://www.w3.org/2000/svg">
<g filter="url(#filter0_d_163_825)">
<path d="M22.0025 127.29C31.223 77.2667 86.9664 22.0288 136.794 31.2131C186.621 40.3975 211.661 110.526 202.441 160.549C194.14 205.583 176.024 155.153 125.867 162.235C114.534 163.835 102.76 161.955 92.643 156.604C46.3729 132.127 13.676 172.464 22.0025 127.29Z" fill="url(#paint0_linear_163_825)"/>
</g>
<ellipse cx="130.01" cy="112" rx="2" ry="3" fill="#222222"/>
<path d="M113.773 99.759C113.773 99.759 111.77 101.681 109.493 101.509C107.215 101.336 105.524 99.1335 105.524 99.1335" stroke="#222222" stroke-width="2" stroke-linecap="round"/>
<path d="M155.959 100.242C155.959 100.242 153.956 102.164 151.678 101.991C149.4 101.819 147.71 99.6164 147.71 99.6164" stroke="#222222" stroke-width="2" stroke-linecap="round"/>
<defs>
<filter id="filter0_d_163_825" x="0.705078" y="30.2043" width="223.621" height="189.266" filterUnits="userSpaceOnUse" color-interpolation-filters="sRGB">
<feFlood flood-opacity="0" result="BackgroundImageFix"/>
<feColorMatrix in="SourceAlpha" type="matrix" values="0 0 0 0 0 0 0 0 0 0 0 0 0 0 0 0 0 0 127 0" result="hardAlpha"/>
<feOffset dy="20"/>
<feGaussianBlur stdDeviation="10"/>
<feComposite in2="hardAlpha" operator="out"/>
<feColorMatrix type="matrix" values="0 0 0 0 0.419375 0 0 0 0 0.7625 0 0 0 0 0.700737 0 0 0 0.25 0"/>
<feBlend mode="normal" in2="BackgroundImageFix" result="effect1_dropShadow_163_825"/>
<feBlend mode="normal" in="SourceGraphic" in2="effect1_dropShadow_163_825" result="shape"/>
</filter>
<linearGradient id="paint0_linear_163_825" x1="223.34" y1="47.1655" x2="25.4109" y2="32.9662" gradientUnits="userSpaceOnUse">
<stop stop-color="#FFF59B"/>
<stop offset="1" stop-color="#FF9447"/>
</linearGradient>
</defs>
</svg>
