<svg xmlns="http://www.w3.org/2000/svg" width="643.307" height="74.644" viewBox="0 0 643.307 74.644">
  <path id="パス_23" data-name="パス 23" d="M97.657,40.117l29.568-27.233V80.806H113.2V46.413c0-1.709.161-3.339.24-4.16L92.828,61.8,71.912,42.089c.084,1.045.245,2.915.245,4.605V80.806H58.127V12.884L87.674,40.117c1.627,1.409,3.766,3.439,4.993,4.605,1.306-1.248,3.523-3.276,4.99-4.605m97.579,19.852-40.889-.082c.706,6.362,6.549,10.915,13.84,10.915,5.509,0,9.806-1.519,13.93-5.943l10.5,6.12c-5.061,6.43-13.5,10.751-24.431,10.751-17.063,0-27.883-11.2-27.883-26.311,0-15.075,11.42-26.129,27.433-26.129,17.729,0,29.418,12.832,27.5,30.68m-13.4-9.5c-.948-6.638-6.262-10.862-13.856-10.862-7.21,0-12.763,4.437-13.632,10.862Zm71.334-38.095h13.564V80.887H253.169V75.615c-4.771,3.66-11.139,5.872-18.788,5.872-17.669,0-28.526-11.781-28.526-26.029,0-14.027,10.938-26.05,28.607-26.05a30.082,30.082,0,0,1,18.706,5.941Zm-4.026,42.924c0-7.418-5.438-14.343-14.68-14.343-9.085,0-14.722,6.6-14.722,14.343,0,7.989,5.638,14.5,14.641,14.5,9.164,0,14.762-6.515,14.762-14.5M281.8,80.806h13.566V30.214H281.8Zm6.675-73.72c-4.713,0-8.505,2.96-8.505,7.283s3.792,7.2,8.505,7.2c4.637,0,8.429-2.868,8.429-7.2s-3.792-7.283-8.429-7.283m65.912,22.985h13.564V80.806H354.388v-5.19c-4.771,3.66-11.139,5.872-18.788,5.872-17.669,0-28.526-11.781-28.526-26.029,0-14.027,10.938-26.05,28.607-26.05a30.067,30.067,0,0,1,18.706,5.943Zm-4.026,25.224c0-7.418-5.438-14.343-14.68-14.343-9.085,0-14.722,6.6-14.722,14.343,0,7.989,5.638,14.5,14.641,14.5,9.164,0,14.762-6.515,14.762-14.5m62.215-12.582-.082,11.67h20.139V64.1a27.284,27.284,0,0,1-16.284,5.051c-12.813,0-21.843-8.987-21.843-20.681,0-11.41,9.351-20.4,21.843-20.4,6.388,0,12.173,2.162,17.74,6.686l9.451-8.708c-9.032-7.244-18.243-10.391-27.191-10.391C395.413,15.662,380,29.747,380,48.636c0,18.928,15.336,33.094,36.354,33.094,10.693,0,22.182-4.837,30.472-13.253l-.079-25.763Zm77.475-13.1c-7.133,0-12.869,3.26-16.026,7.694V30.132H460.462V80.806h13.564V55.1c0-8.6,4.242-13.959,12.76-13.959,7.96,0,11,4.69,11,14.285V80.806h13.946V55.021c0-16.671-6.81-25.411-21.679-25.411m89.893,25.848c0,14.248-10.878,26.029-28.547,26.029s-28.526-11.781-28.526-26.029c0-14.027,10.938-26.05,28.607-26.05,17.587,0,28.465,12.023,28.465,26.05m-13.785-.163c0-7.418-5.438-14.343-14.68-14.343-9.085,0-14.722,6.6-14.722,14.343,0,7.989,5.638,14.5,14.641,14.5,9.164,0,14.762-6.515,14.762-14.5m43.1-5.58c-5-1.1-6.9-2.544-6.9-5.222,0-2.662,2.475-4.463,6.349-4.49a15.148,15.148,0,0,1,9.738,4.081l7.389-7.289A25.462,25.462,0,0,0,607.5,29.371c-10.609.224-18.082,6.528-18.082,15.288,0,8.455,5.754,13.54,17.548,16.086,5.006,1.2,6.752,2.575,6.778,5.59.021,2.71-2.531,4.561-6.209,4.595-3.937.032-8.813-2.283-12.36-5.351l-7.592,8.466a33.047,33.047,0,0,0,21.045,7.6c10.754-.134,18.48-6.378,18.464-15.128-.021-8.666-6.059-14.4-17.832-16.805m35.19-42.629c-4.716,0-8.505,2.96-8.505,7.283s3.789,7.2,8.505,7.2c4.64,0,8.429-2.868,8.429-7.2s-3.789-7.283-8.429-7.283m-6.673,73.72h13.564V30.214H637.772ZM683.6,49.715c-5-1.1-6.9-2.544-6.9-5.222,0-2.662,2.473-4.463,6.349-4.49a15.141,15.141,0,0,1,9.735,4.081l7.391-7.289a25.467,25.467,0,0,0-18.335-7.426c-10.609.224-18.085,6.528-18.085,15.288,0,8.455,5.754,13.54,17.548,16.086,5.006,1.2,6.754,2.575,6.778,5.59.021,2.71-2.531,4.561-6.206,4.595-3.939.032-8.813-2.283-12.363-5.351l-7.592,8.466a33.059,33.059,0,0,0,21.045,7.6c10.757-.134,18.483-6.378,18.464-15.128-.018-8.666-6.059-14.4-17.832-16.805" transform="translate(-58.127 -7.086)" fill="#07207a"/>
</svg>
